<svg width="221" height="42" viewBox="0 0 221 42" fill="none" xmlns="http://www.w3.org/2000/svg">
<g clip-path="url(#clip0_93_1475)">
<path fill-rule="evenodd" clip-rule="evenodd" d="M199.884 26.6338C199.649 26.8681 199.331 26.9997 199 26.9997C198.669 26.9997 198.351 26.8681 198.116 26.6338L191.045 19.5625C190.926 19.4472 190.83 19.3093 190.765 19.1568C190.699 19.0043 190.665 18.8402 190.663 18.6743C190.662 18.5083 190.694 18.3437 190.756 18.1901C190.819 18.0364 190.912 17.8969 191.03 17.7795C191.147 17.6621 191.286 17.5693 191.44 17.5065C191.594 17.4436 191.758 17.412 191.924 17.4134C192.09 17.4149 192.254 17.4494 192.407 17.5149C192.559 17.5804 192.697 17.6756 192.813 17.795L199 23.9825L205.188 17.795C205.423 17.5673 205.739 17.4413 206.067 17.4442C206.394 17.447 206.708 17.5785 206.94 17.8102C207.172 18.042 207.303 18.3555 207.306 18.6832C207.309 19.011 207.183 19.3267 206.955 19.5625L199.884 26.6338Z" fill="#545454"/>
</g>
<rect x="0.5" y="0.5" width="220" height="41" rx="9.5" stroke="black"/>
<defs>
<clipPath id="clip0_93_1475">
<rect width="30" height="30" fill="white" transform="translate(184 7)"/>
</clipPath>
</defs>
</svg>
