<svg width="93" height="42" viewBox="0 0 93 42" fill="none" xmlns="http://www.w3.org/2000/svg">
<g clip-path="url(#clip0_93_1476)">
<path fill-rule="evenodd" clip-rule="evenodd" d="M73.8838 26.6338C73.6493 26.8681 73.3315 26.9997 73 26.9997C72.6685 26.9997 72.3507 26.8681 72.1163 26.6338L65.045 19.5625C64.9256 19.4472 64.8304 19.3093 64.7649 19.1568C64.6994 19.0043 64.6649 18.8402 64.6634 18.6743C64.662 18.5083 64.6936 18.3437 64.7565 18.1901C64.8193 18.0364 64.9121 17.8969 65.0295 17.7795C65.1469 17.6621 65.2864 17.5693 65.4401 17.5065C65.5937 17.4436 65.7583 17.412 65.9243 17.4134C66.0902 17.4149 66.2543 17.4494 66.4068 17.5149C66.5593 17.5804 66.6972 17.6756 66.8125 17.795L73 23.9825L79.1875 17.795C79.4233 17.5673 79.739 17.4413 80.0668 17.4442C80.3945 17.447 80.708 17.5785 80.9398 17.8102C81.1715 18.042 81.303 18.3555 81.3058 18.6832C81.3087 19.011 81.1827 19.3267 80.955 19.5625L73.8838 26.6338Z" fill="#545454"/>
</g>
<rect x="0.5" y="0.5" width="92" height="41" rx="9.5" stroke="black"/>
<defs>
<clipPath id="clip0_93_1476">
<rect width="30" height="30" fill="white" transform="translate(58 7)"/>
</clipPath>
</defs>
</svg>
