<svg width="23" height="13" viewBox="0 0 23 13" fill="none" xmlns="http://www.w3.org/2000/svg">
<path fill-rule="evenodd" clip-rule="evenodd" d="M12.5037 12.5037C12.1859 12.8215 11.7548 13.0001 11.3053 13.0001C10.8558 13.0001 10.4247 12.8215 10.1068 12.5037L0.517503 2.91441C0.355601 2.75804 0.226462 2.57099 0.137622 2.36418C0.0487821 2.15737 0.00201987 1.93493 6.40018e-05 1.70986C-0.00189186 1.48478 0.0409982 1.26157 0.126231 1.05324C0.211463 0.844916 0.337332 0.655651 0.496492 0.496491C0.655652 0.337331 0.844915 0.211462 1.05324 0.12623C1.26156 0.0409974 1.48478 -0.00189186 1.70986 6.4003e-05C1.93493 0.00201987 2.15737 0.0487821 2.36418 0.137622C2.57099 0.226462 2.75804 0.3556 2.91441 0.517502L11.3053 8.90838L19.6962 0.517502C20.0159 0.208721 20.4441 0.0378615 20.8885 0.0417238C21.333 0.045586 21.7581 0.22386 22.0724 0.538151C22.3867 0.852441 22.565 1.2776 22.5689 1.72206C22.5727 2.16651 22.4019 2.59471 22.0931 2.91441L12.5037 12.5037Z" fill="#545454"/>
</svg>
