<svg width="120" height="120" viewBox="0 0 120 120" fill="none" xmlns="http://www.w3.org/2000/svg">
<g clip-path="url(#clip0_120_938)">
<path d="M12.8576 17.1429C10.5843 17.1429 8.4041 18.0459 6.79665 19.6534C5.18919 21.2608 4.28613 23.441 4.28613 25.7143V107.143C4.28613 109.416 5.18919 111.596 6.79665 113.204C8.4041 114.811 10.5843 115.714 12.8576 115.714H107.143C109.417 115.714 111.597 114.811 113.204 113.204C114.812 111.596 115.715 109.416 115.715 107.143V25.7143C115.715 23.441 114.812 21.2608 113.204 19.6534C111.597 18.0459 109.417 17.1429 107.143 17.1429H90.0004M30.0004 4.28571V30M90.0004 4.28571V30M30.0004 17.1429H72.8576" stroke="#545454" stroke-width="7.78571" stroke-linecap="round" stroke-linejoin="round"/>
<path d="M53.0404 39.1029C51.9037 39.1029 50.8137 39.5544 50.0099 40.3581C49.2062 41.1618 48.7547 42.2519 48.7547 43.3886V55.44H36.6861C35.5495 55.44 34.4594 55.8915 33.6556 56.6953C32.8519 57.499 32.4004 58.5891 32.4004 59.7257V73.6543C32.4004 74.7909 32.8519 75.881 33.6556 76.6847C34.4594 77.4885 35.5495 77.94 36.6861 77.94H48.7461V89.9914C48.7461 91.1281 49.1976 92.2182 50.0014 93.0219C50.8051 93.8256 51.8952 94.2771 53.0318 94.2771H66.9604C67.5232 94.2771 68.0805 94.1663 68.6005 93.9509C69.1204 93.7355 69.5929 93.4199 69.9908 93.0219C70.3888 92.6239 70.7045 92.1515 70.9199 91.6315C71.1353 91.1115 71.2461 90.5542 71.2461 89.9914V77.94H83.2975C84.4342 77.94 85.5243 77.4885 86.328 76.6847C87.1317 75.881 87.5833 74.7909 87.5833 73.6543V59.7257C87.5833 58.5891 87.1317 57.499 86.328 56.6953C85.5243 55.8915 84.4342 55.44 83.2975 55.44H71.2547V43.3886C71.2547 42.2519 70.8031 41.1618 69.9994 40.3581C69.1957 39.5544 68.1056 39.1029 66.969 39.1029H53.0404Z" stroke="#545454" stroke-width="7.78571" stroke-linecap="round" stroke-linejoin="round"/>
</g>
<defs>
<clipPath id="clip0_120_938">
<rect width="120" height="120" fill="white"/>
</clipPath>
</defs>
</svg>
