<svg width="38" height="38" viewBox="0 0 38 38" fill="none" xmlns="http://www.w3.org/2000/svg">
<path d="M13.7861 31.2028L28.5 16.4888L21.5112 9.5L6.79725 24.2139C6.59468 24.4167 6.45079 24.6706 6.38083 24.9486L4.75 33.25L13.0498 31.6192C13.3285 31.5495 13.5834 31.4054 13.7861 31.2028ZM33.25 11.7388C33.8437 11.145 34.1772 10.3397 34.1772 9.5C34.1772 8.66032 33.8437 7.85501 33.25 7.26117L30.7388 4.75C30.145 4.15634 29.3397 3.82285 28.5 3.82285C27.6603 3.82285 26.855 4.15634 26.2612 4.75L23.75 7.26117L30.7388 14.25L33.25 11.7388Z" fill="#F8F8F8"/>
</svg>
