<svg width="140" height="140" viewBox="0 0 140 140" fill="none" xmlns="http://www.w3.org/2000/svg">
<path fill-rule="evenodd" clip-rule="evenodd" d="M37.9167 17.5C36.3696 17.5 34.8858 18.1146 33.7919 19.2085C32.6979 20.3025 32.0833 21.7862 32.0833 23.3333V26.25H17.5V81.6667H81.6667V26.25H67.0833V23.3333C67.0833 21.7862 66.4687 20.3025 65.3748 19.2085C64.2808 18.1146 62.7971 17.5 61.25 17.5H37.9167ZM61.25 52.5C62.7971 52.5 64.2808 51.8854 65.3748 50.7915C66.4687 49.6975 67.0833 48.2138 67.0833 46.6667V43.75H75.8333V75.8333H61.25V58.3333H37.9167V75.8333H23.3333V43.75H32.0833V46.6667C32.0833 48.2138 32.6979 49.6975 33.7919 50.7915C34.8858 51.8854 36.3696 52.5 37.9167 52.5H61.25ZM23.3333 32.0833H32.0833V37.9167H23.3333V32.0833ZM75.8333 37.9167H67.0833V32.0833H75.8333V37.9167ZM55.4167 64.1667V75.8333H43.75V64.1667H55.4167ZM46.6667 23.3333V32.0833H37.9167V37.9167H46.6667V46.6667H52.5V37.9167H61.25V32.0833H52.5V23.3333H46.6667Z" fill="#545454"/>
<path d="M87.5001 78.75C87.5001 75.6558 88.7292 72.6884 90.9172 70.5004C93.1051 68.3125 96.0725 67.0833 99.1667 67.0833C102.261 67.0833 105.228 68.3125 107.416 70.5004C109.604 72.6884 110.833 75.6558 110.833 78.75C110.833 81.8442 109.604 84.8117 107.416 86.9996C105.228 89.1875 102.261 90.4167 99.1667 90.4167C96.0725 90.4167 93.1051 89.1875 90.9172 86.9996C88.7292 84.8117 87.5001 81.8442 87.5001 78.75ZM99.1667 96.25C91.3792 96.25 75.8334 100.514 75.8334 108.978V116.667H49.5834C47.4572 116.667 46.0776 115.9 45.1997 114.911C44.2751 113.87 43.7501 112.4 43.7501 110.833V100.374L53.3547 109.979L57.4788 105.855L40.8334 89.2092L24.188 105.855L28.3122 109.979L37.9167 100.374V110.833C37.9167 113.642 38.8501 116.547 40.8422 118.787C42.8809 121.08 45.8763 122.5 49.5834 122.5H122.5V108.978C122.5 100.514 106.954 96.25 99.1667 96.25Z" fill="#545454"/>
</svg>
