<svg width="140" height="140" viewBox="0 0 140 140" fill="none" xmlns="http://www.w3.org/2000/svg">
<g clip-path="url(#clip0_119_899)">
<path d="M125.728 23.3333C125.197 23.2787 124.663 23.2787 124.133 23.3333H15.2442C14.5463 23.3441 13.8531 23.4487 13.1831 23.6444L69.3776 79.6056L125.728 23.3333Z" fill="#545454"/>
<path d="M131.483 28.7389L74.8609 85.1278C73.4037 86.5764 71.4324 87.3895 69.3776 87.3895C67.3228 87.3895 65.3515 86.5764 63.8943 85.1278L7.77759 29.1667C7.60508 29.8007 7.51361 30.4541 7.50537 31.1111V108.889C7.50537 110.952 8.32481 112.93 9.78343 114.389C11.242 115.847 13.2204 116.667 15.2831 116.667H124.172C126.235 116.667 128.213 115.847 129.672 114.389C131.13 112.93 131.95 110.952 131.95 108.889V31.1111C131.919 30.3009 131.761 29.5005 131.483 28.7389ZM20.6109 108.889H15.2054V103.328L43.4776 75.2889L48.9609 80.7722L20.6109 108.889ZM124.094 108.889H118.65L90.2998 80.7722L95.7831 75.2889L124.055 103.328L124.094 108.889Z" fill="#545454"/>
</g>
<defs>
<clipPath id="clip0_119_899">
<rect width="140" height="140" fill="white"/>
</clipPath>
</defs>
</svg>
