<svg width="123" height="118" viewBox="0 0 123 118" fill="none" xmlns="http://www.w3.org/2000/svg">
<path d="M71.3964 19.6667H50.9973C31.7662 19.6667 22.148 19.6667 16.1762 25.429C11.872 29.5738 10.6685 35.5426 10.3319 45.4792H112.062C111.725 35.5426 110.522 29.5738 106.217 25.429C100.246 19.6667 90.6275 19.6667 71.3964 19.6667Z" fill="#545454"/>
<path fill-rule="evenodd" clip-rule="evenodd" d="M71.3964 98.3333H50.9974C31.7662 98.3333 22.1481 98.3333 16.1762 92.571C10.1993 86.8136 10.1993 77.5408 10.1993 59C10.1993 56.8268 10.1993 54.7815 10.2095 52.8542H112.184C112.194 54.7815 112.194 56.8268 112.194 59C112.194 77.5408 112.194 86.8136 106.218 92.571C100.246 98.3333 90.6276 98.3333 71.3964 98.3333ZM81.8254 60.2292C84.0336 60.2292 86.0582 60.2292 87.7003 60.4406C89.5158 60.6766 91.4282 61.2273 93.0041 62.7514C94.585 64.2707 95.1562 66.1144 95.4009 67.8648C95.6202 69.4528 95.6202 71.4048 95.6202 73.5288V73.9713C95.6202 76.1002 95.6202 78.0521 95.4009 79.6353C95.1562 81.3856 94.585 83.2293 93.0041 84.7486C91.4282 86.2728 89.5158 86.8234 87.7003 87.0594C86.0531 87.2709 84.0285 87.2708 81.8254 87.2708H81.3664C79.1582 87.2708 77.1336 87.2709 75.4915 87.0594C73.676 86.8234 71.7636 86.2728 70.1877 84.7486C68.6068 83.2293 68.0357 81.3856 67.7909 79.6353C67.5716 78.0472 67.5716 76.0953 67.5716 73.9713V73.5288C67.5716 71.3998 67.5716 69.4479 67.7909 67.8648C68.0357 66.1144 68.6068 64.2707 70.1877 62.7514C71.7636 61.2273 73.676 60.6766 75.4915 60.4406C77.1387 60.2292 79.1633 60.2292 81.3664 60.2292H81.8254ZM26.7735 66.375C26.7735 65.397 27.1765 64.4591 27.8938 63.7676C28.6111 63.076 29.5839 62.6875 30.5984 62.6875H40.7979C41.8123 62.6875 42.7851 63.076 43.5024 63.7676C44.2197 64.4591 44.6227 65.397 44.6227 66.375C44.6227 67.353 44.2197 68.2909 43.5024 68.9825C42.7851 69.674 41.8123 70.0625 40.7979 70.0625H30.5984C29.5839 70.0625 28.6111 69.674 27.8938 68.9825C27.1765 68.2909 26.7735 67.353 26.7735 66.375ZM26.7735 81.125C26.7735 80.147 27.1765 79.2091 27.8938 78.5176C28.6111 77.826 29.5839 77.4375 30.5984 77.4375H50.9974C52.0118 77.4375 52.9846 77.826 53.7019 78.5176C54.4192 79.2091 54.8222 80.147 54.8222 81.125C54.8222 82.103 54.4192 83.0409 53.7019 83.7325C52.9846 84.424 52.0118 84.8125 50.9974 84.8125H30.5984C29.5839 84.8125 28.6111 84.424 27.8938 83.7325C27.1765 83.0409 26.7735 82.103 26.7735 81.125Z" fill="#545454"/>
<path d="M75.5936 67.9631L75.6089 67.9582C75.8992 67.8519 76.2026 67.7825 76.5115 67.7517C77.5825 67.614 79.0818 67.6042 81.596 67.6042C84.1102 67.6042 85.6095 67.614 86.6804 67.7517C86.9893 67.7825 87.2928 67.8519 87.5831 67.9582L87.5984 67.9631L87.6035 67.9778C87.7137 68.2577 87.7857 68.5503 87.8177 68.8481C87.9605 69.8806 87.9707 71.3261 87.9707 73.75C87.9707 76.1739 87.9605 77.6194 87.8177 78.6519C87.7857 78.9497 87.7137 79.2423 87.6035 79.5222L87.5984 79.5369L87.5831 79.5418C87.2928 79.6481 86.9893 79.7175 86.6804 79.7483C85.6095 79.886 84.1102 79.8958 81.596 79.8958C79.0818 79.8958 77.5825 79.886 76.5115 79.7483C76.2026 79.7175 75.8992 79.6481 75.6089 79.5418L75.5936 79.5369L75.5885 79.5222C75.4782 79.2423 75.4062 78.9497 75.3743 78.6519C75.2315 77.6194 75.2213 76.1739 75.2213 73.75C75.2213 71.3261 75.2315 69.8806 75.3743 68.8481C75.4062 68.5503 75.4782 68.2577 75.5885 67.9778L75.5936 67.9631Z" fill="#545454"/>
</svg>
