<svg width="140" height="140" viewBox="0 0 140 140" fill="none" xmlns="http://www.w3.org/2000/svg">
<path d="M46.6663 128.333C38.5969 128.333 31.7194 125.489 26.0338 119.799C20.3483 114.11 17.5036 107.232 17.4997 99.1667V46.6667C14.2913 46.6667 11.5458 45.5253 9.26301 43.2425C6.98023 40.9597 5.8369 38.2122 5.83301 35V23.3333C5.83301 20.125 6.97634 17.3794 9.26301 15.0967C11.5497 12.8139 14.2952 11.6705 17.4997 11.6667H75.833C79.0413 11.6667 81.7888 12.81 84.0755 15.0967C86.3622 17.3833 87.5036 20.1289 87.4997 23.3333V35C87.4997 38.2083 86.3583 40.9558 84.0755 43.2425C81.7927 45.5292 79.0452 46.6705 75.833 46.6667V64.3125C71.7497 66.9375 68.275 70.2197 65.4088 74.1592C62.5427 78.0986 60.5244 82.5455 59.3538 87.5H46.6663V75.8333H64.1663V70H46.6663V58.3333H64.1663V46.6667H29.1663V99.1667C29.1663 104.028 30.8677 108.16 34.2705 111.562C37.6733 114.965 41.8052 116.667 46.6663 116.667C49.583 116.667 52.2566 116.035 54.6872 114.771C57.1177 113.507 59.1594 111.757 60.8122 109.521C61.59 111.465 62.465 113.312 63.4372 115.062C64.4094 116.812 65.5761 118.514 66.9372 120.167C64.3122 122.694 61.2749 124.687 57.8255 126.146C54.3761 127.604 50.6563 128.333 46.6663 128.333ZM46.6663 105V93.3333H58.4788C58.2844 95.2778 58.2611 97.2222 58.4088 99.1667C58.5566 101.111 58.8716 103.056 59.3538 105H46.6663ZM96.2497 110.833C100.333 110.833 103.784 109.424 106.604 106.604C109.423 103.785 110.833 100.333 110.833 96.25C110.833 92.1667 109.423 88.7153 106.604 85.8958C103.784 83.0764 100.333 81.6667 96.2497 81.6667C92.1663 81.6667 88.715 83.0764 85.8955 85.8958C83.0761 88.7153 81.6663 92.1667 81.6663 96.25C81.6663 100.333 83.0761 103.785 85.8955 106.604C88.715 109.424 92.1663 110.833 96.2497 110.833ZM126 134.167L110.25 118.417C108.111 119.778 105.875 120.799 103.541 121.479C101.208 122.16 98.7775 122.5 96.2497 122.5C88.958 122.5 82.7611 119.949 77.6588 114.847C72.5566 109.744 70.0036 103.546 69.9997 96.25C69.9997 88.9583 72.5527 82.7614 77.6588 77.6592C82.7649 72.5569 88.9619 70.0039 96.2497 70C103.541 70 109.74 72.553 114.846 77.6592C119.952 82.7653 122.504 88.9622 122.5 96.25C122.5 98.7778 122.159 101.208 121.479 103.542C120.798 105.875 119.777 108.111 118.416 110.25L134.166 126L126 134.167Z" fill="#545454"/>
</svg>
