<svg width="140" height="140" viewBox="0 0 140 140" fill="none" xmlns="http://www.w3.org/2000/svg">
<path fill-rule="evenodd" clip-rule="evenodd" d="M52.2787 107.736C35.1112 94.5817 11.667 72.8525 11.667 52.3075C11.667 17.9842 43.7503 5.16834 70.0003 31.675C96.2503 5.16834 128.334 17.9842 128.334 52.3075C128.334 72.8525 104.884 94.5817 87.722 107.736C79.952 113.686 76.067 116.667 70.0003 116.667C63.9337 116.667 60.0487 113.692 52.2787 107.736ZM96.2503 36.4583C97.4106 36.4583 98.5234 36.9193 99.3439 37.7397C100.164 38.5602 100.625 39.673 100.625 40.8333V48.125H107.917C109.077 48.125 110.19 48.5859 111.011 49.4064C111.831 50.2269 112.292 51.3397 112.292 52.5C112.292 53.6603 111.831 54.7731 111.011 55.5936C110.19 56.4141 109.077 56.875 107.917 56.875H100.625V64.1667C100.625 65.327 100.164 66.4398 99.3439 67.2603C98.5234 68.0807 97.4106 68.5417 96.2503 68.5417C95.09 68.5417 93.9772 68.0807 93.1567 67.2603C92.3363 66.4398 91.8753 65.327 91.8753 64.1667V56.875H84.5837C83.4233 56.875 82.3105 56.4141 81.4901 55.5936C80.6696 54.7731 80.2087 53.6603 80.2087 52.5C80.2087 51.3397 80.6696 50.2269 81.4901 49.4064C82.3105 48.5859 83.4233 48.125 84.5837 48.125H91.8753V40.8333C91.8753 39.673 92.3363 38.5602 93.1567 37.7397C93.9772 36.9193 95.09 36.4583 96.2503 36.4583Z" fill="#545454"/>
</svg>
