<svg width="145" height="134" viewBox="0 0 145 134" fill="none" xmlns="http://www.w3.org/2000/svg">
<g clip-path="url(#clip0_125_899)">
<path fill-rule="evenodd" clip-rule="evenodd" d="M70.305 26.7129C69.7704 26.1392 69.1258 25.679 68.4095 25.3598C67.6932 25.0407 66.92 24.8691 66.1359 24.8552C65.3519 24.8414 64.5731 24.9856 63.846 25.2793C63.1189 25.573 62.4584 26.0101 61.9039 26.5646C61.3494 27.1191 60.9123 27.7796 60.6186 28.5067C60.3249 29.2338 60.1807 30.0126 60.1945 30.7966C60.2084 31.5807 60.38 32.3539 60.6991 33.0702C61.0183 33.7865 61.4784 34.4311 62.0521 34.9657L67.6579 40.5714H50.6071C49.5747 40.5714 48.5845 40.9816 47.8545 41.7116C47.1244 42.4417 46.7143 43.4318 46.7143 44.4643V83.3929C46.7143 84.4253 47.1244 85.4155 47.8545 86.1455C48.5845 86.8756 49.5747 87.2857 50.6071 87.2857H72.9911V52.25C72.9911 50.9594 73.5037 49.7217 74.4163 48.8092C75.3289 47.8966 76.5666 47.3839 77.8571 47.3839C79.1477 47.3839 80.3854 47.8966 81.298 48.8092C82.2105 49.7217 82.7232 50.9594 82.7232 52.25V87.2857H105.107C106.14 87.2857 107.13 86.8756 107.86 86.1455C108.59 85.4155 109 84.4253 109 83.3929V44.4643C109 43.4318 108.59 42.4417 107.86 41.7116C107.13 40.9816 106.14 40.5714 105.107 40.5714H88.0564L93.6621 34.9657C94.6936 33.8588 95.2551 32.3947 95.2284 30.8819C95.2017 29.3692 94.5889 27.9258 93.5191 26.8559C92.4492 25.7861 91.0058 25.1733 89.4931 25.1466C87.9803 25.1199 86.5162 25.6814 85.4093 26.7129L77.8571 34.265L70.305 26.7129ZM14.3491 79.5H0V110.643L14.2323 124.875C17.1244 127.768 20.5582 130.063 24.3374 131.629C28.1167 133.194 32.1674 134 36.2581 134H81.75C84.8474 134 87.8178 132.77 90.008 130.579C92.1982 128.389 93.4286 125.419 93.4286 122.321C93.4286 119.224 92.1982 116.254 90.008 114.063C87.8178 111.873 84.8474 110.643 81.75 110.643H60.1291C59.3197 113.372 57.8148 115.844 55.7622 117.817C53.7095 119.79 51.1794 121.195 48.42 121.895C45.6606 122.596 42.7666 122.567 40.0217 121.812C37.2768 121.056 34.7752 119.601 32.7623 117.588L21.473 106.298C21.0211 105.847 20.6626 105.31 20.418 104.72C20.1735 104.129 20.0476 103.496 20.0476 102.857C20.0476 102.218 20.1735 101.585 20.418 100.995C20.6626 100.404 21.0211 99.8678 21.473 99.4159C21.9249 98.9639 22.4614 98.6055 23.0519 98.3609C23.6423 98.1163 24.2752 97.9904 24.9143 97.9904C25.5534 97.9904 26.1862 98.1163 26.7767 98.3609C27.3672 98.6055 27.9037 98.9639 28.3556 99.4159L39.6449 110.705C40.8353 111.889 42.4271 112.583 44.1047 112.648C45.7824 112.714 47.4235 112.147 48.7028 111.06C49.9821 109.972 50.8062 108.444 51.0118 106.778C51.2175 105.111 50.7896 103.429 49.813 102.063L36.3749 88.6249C33.4827 85.7318 30.049 83.437 26.2697 81.8713C22.4905 80.3056 18.4398 79.4999 14.3491 79.5Z" fill="#545454"/>
</g>
<rect x="38" y="20" width="92" height="67" fill="#D9D9D9"/>
<path d="M99.5833 45.4167H124.562L99.5833 20.4375V45.4167ZM58.7083 13.625H104.125L131.375 40.875V86.2917C131.375 88.7007 130.418 91.0111 128.715 92.7145C127.011 94.418 124.701 95.375 122.292 95.375H58.7083C56.2993 95.375 53.9889 94.418 52.2854 92.7145C50.582 91.0111 49.625 88.7007 49.625 86.2917V22.7083C49.625 17.6671 53.6671 13.625 58.7083 13.625ZM58.7083 54.5V63.5833H122.292V54.5H58.7083ZM58.7083 72.6667V81.75H99.5833V72.6667H58.7083Z" fill="#545454"/>
<defs>
<clipPath id="clip0_125_899">
<rect width="109" height="109" fill="white" transform="translate(0 25)"/>
</clipPath>
</defs>
</svg>
