<svg width="75" height="75" viewBox="0 0 75 75" fill="none" xmlns="http://www.w3.org/2000/svg">
<path fill-rule="evenodd" clip-rule="evenodd" d="M25 21.875C25 18.5598 26.317 15.3804 28.6612 13.0362C31.0054 10.692 34.1848 9.375 37.5 9.375C40.8152 9.375 43.9946 10.692 46.3388 13.0362C48.683 15.3804 50 18.5598 50 21.875C50 25.1902 48.683 28.3696 46.3388 30.7138C43.9946 33.058 40.8152 34.375 37.5 34.375C34.1848 34.375 31.0054 33.058 28.6612 30.7138C26.317 28.3696 25 25.1902 25 21.875ZM25 40.625C20.856 40.625 16.8817 42.2712 13.9515 45.2015C11.0212 48.1317 9.375 52.106 9.375 56.25C9.375 58.7364 10.3627 61.121 12.1209 62.8791C13.879 64.6373 16.2636 65.625 18.75 65.625H56.25C58.7364 65.625 61.121 64.6373 62.8791 62.8791C64.6373 61.121 65.625 58.7364 65.625 56.25C65.625 52.106 63.9788 48.1317 61.0485 45.2015C58.1183 42.2712 54.144 40.625 50 40.625H25Z" fill="#73000A"/>
</svg>
