<svg width="140" height="140" viewBox="0 0 140 140" fill="none" xmlns="http://www.w3.org/2000/svg">
<path d="M45.5 70C46.4283 70 47.3185 69.6313 47.9749 68.9749C48.6313 68.3185 49 67.4283 49 66.5C49 65.5717 48.6313 64.6815 47.9749 64.0251C47.3185 63.3687 46.4283 63 45.5 63C44.5717 63 43.6815 63.3687 43.0251 64.0251C42.3687 64.6815 42 65.5717 42 66.5C42 67.4283 42.3687 68.3185 43.0251 68.9749C43.6815 69.6313 44.5717 70 45.5 70ZM49 94.5C49 95.4283 48.6313 96.3185 47.9749 96.9749C47.3185 97.6313 46.4283 98 45.5 98C44.5717 98 43.6815 97.6313 43.0251 96.9749C42.3687 96.3185 42 95.4283 42 94.5C42 93.5717 42.3687 92.6815 43.0251 92.0251C43.6815 91.3688 44.5717 91 45.5 91C46.4283 91 47.3185 91.3688 47.9749 92.0251C48.6313 92.6815 49 93.5717 49 94.5ZM21 42C21 36.4305 23.2125 31.089 27.1508 27.1508C31.089 23.2125 36.4305 21 42 21H98C103.57 21 108.911 23.2125 112.849 27.1508C116.788 31.089 119 36.4305 119 42V98C119 103.57 116.788 108.911 112.849 112.849C108.911 116.788 103.57 119 98 119H42C36.4305 119 31.089 116.788 27.1508 112.849C23.2125 108.911 21 103.57 21 98V42ZM38.5 35C37.5717 35 36.6815 35.3688 36.0251 36.0251C35.3687 36.6815 35 37.5717 35 38.5C35 39.4283 35.3687 40.3185 36.0251 40.9749C36.6815 41.6313 37.5717 42 38.5 42H101.5C102.428 42 103.318 41.6313 103.975 40.9749C104.631 40.3185 105 39.4283 105 38.5C105 37.5717 104.631 36.6815 103.975 36.0251C103.318 35.3688 102.428 35 101.5 35H38.5ZM45.5 77C48.2848 77 50.9555 75.8938 52.9246 73.9246C54.8938 71.9555 56 69.2848 56 66.5C56 63.7152 54.8938 61.0445 52.9246 59.0754C50.9555 57.1062 48.2848 56 45.5 56C42.7152 56 40.0445 57.1062 38.0754 59.0754C36.1062 61.0445 35 63.7152 35 66.5C35 69.2848 36.1062 71.9555 38.0754 73.9246C40.0445 75.8938 42.7152 77 45.5 77ZM56 94.5C56 91.7152 54.8938 89.0445 52.9246 87.0754C50.9555 85.1062 48.2848 84 45.5 84C42.7152 84 40.0445 85.1062 38.0754 87.0754C36.1062 89.0445 35 91.7152 35 94.5C35 97.2848 36.1062 99.9555 38.0754 101.925C40.0445 103.894 42.7152 105 45.5 105C48.2848 105 50.9555 103.894 52.9246 101.925C54.8938 99.9555 56 97.2848 56 94.5ZM63 66.5C63 67.4283 63.3687 68.3185 64.0251 68.9749C64.6815 69.6313 65.5717 70 66.5 70H101.5C102.428 70 103.318 69.6313 103.975 68.9749C104.631 68.3185 105 67.4283 105 66.5C105 65.5717 104.631 64.6815 103.975 64.0251C103.318 63.3687 102.428 63 101.5 63H66.5C65.5717 63 64.6815 63.3687 64.0251 64.0251C63.3687 64.6815 63 65.5717 63 66.5ZM66.5 91C65.5717 91 64.6815 91.3688 64.0251 92.0251C63.3687 92.6815 63 93.5717 63 94.5C63 95.4283 63.3687 96.3185 64.0251 96.9749C64.6815 97.6313 65.5717 98 66.5 98H101.5C102.428 98 103.318 97.6313 103.975 96.9749C104.631 96.3185 105 95.4283 105 94.5C105 93.5717 104.631 92.6815 103.975 92.0251C103.318 91.3688 102.428 91 101.5 91H66.5Z" fill="#545454"/>
</svg>
