<svg width="8" height="17" viewBox="0 0 8 17" fill="none" xmlns="http://www.w3.org/2000/svg">
<path d="M6.32558 17C6.16369 17.0006 6.00374 16.9606 5.85748 16.8828C5.71121 16.8051 5.58235 16.6916 5.48036 16.5508L0.246509 9.26569C0.0871293 9.04844 0 8.77592 0 8.49469C0 8.21346 0.0871293 7.94094 0.246509 7.72369L5.66457 0.438624C5.84851 0.190669 6.11281 0.0347391 6.39935 0.00513779C6.68588 -0.0244635 6.97118 0.0746885 7.19247 0.280781C7.41376 0.486874 7.55292 0.783026 7.57934 1.10409C7.60576 1.42515 7.51727 1.74482 7.33334 1.99277L2.48959 8.50076L7.1708 15.0088C7.3033 15.187 7.38748 15.404 7.41335 15.6341C7.43923 15.8643 7.40573 16.0979 7.31681 16.3074C7.22789 16.5169 7.08728 16.6934 6.91162 16.8162C6.73595 16.9389 6.53259 17.0027 6.32558 17Z" fill="#231F20"/>
</svg>
