<svg width="40" height="40" viewBox="0 0 40 40" fill="none" xmlns="http://www.w3.org/2000/svg">
<path d="M29.9997 21.6634H21.6663V29.9967C21.6663 30.4388 21.4907 30.8627 21.1782 31.1753C20.8656 31.4878 20.4417 31.6634 19.9997 31.6634C19.5576 31.6634 19.1337 31.4878 18.8212 31.1753C18.5086 30.8627 18.333 30.4388 18.333 29.9967V21.6634H9.99967C9.55765 21.6634 9.13372 21.4878 8.82116 21.1753C8.5086 20.8627 8.33301 20.4388 8.33301 19.9967C8.33301 19.5547 8.5086 19.1308 8.82116 18.8182C9.13372 18.5057 9.55765 18.3301 9.99967 18.3301H18.333V9.99674C18.333 9.55472 18.5086 9.13079 18.8212 8.81823C19.1337 8.50567 19.5576 8.33008 19.9997 8.33008C20.4417 8.33008 20.8656 8.50567 21.1782 8.81823C21.4907 9.13079 21.6663 9.55472 21.6663 9.99674V18.3301H29.9997C30.4417 18.3301 30.8656 18.5057 31.1782 18.8182C31.4907 19.1308 31.6663 19.5547 31.6663 19.9967C31.6663 20.4388 31.4907 20.8627 31.1782 21.1753C30.8656 21.4878 30.4417 21.6634 29.9997 21.6634Z" fill="#545454"/>
</svg>
