<svg width="88" height="17" viewBox="0 0 88 17" fill="none" xmlns="http://www.w3.org/2000/svg">
<path d="M6.32503 16.9985C6.16316 16.9992 6.00322 16.9591 5.85697 16.8814C5.71072 16.8037 5.58187 16.6902 5.47989 16.5493L0.246488 9.26489C0.0871218 9.04766 0 8.77517 0 8.49396C0 8.21275 0.0871218 7.94026 0.246488 7.72302L5.66409 0.438587C5.848 0.190653 6.11228 0.0347361 6.39879 0.00513735C6.68531 -0.0244614 6.97058 0.0746821 7.19185 0.280757C7.41312 0.486832 7.55227 0.782958 7.57869 1.10399C7.6051 1.42502 7.51662 1.74467 7.33271 1.9926L2.48937 8.50003L7.17018 15.0075C7.30267 15.1857 7.38684 15.4027 7.41271 15.6328C7.43859 15.8629 7.40509 16.0965 7.31618 16.306C7.22727 16.5155 7.08667 16.692 6.91102 16.8147C6.73537 16.9375 6.53202 17.0012 6.32503 16.9985Z" fill="#231F20"/>
<path d="M81.3707 0.0014651C81.5326 0.000848916 81.6926 0.0408796 81.8388 0.118614C81.9851 0.19635 82.1139 0.309816 82.2159 0.450674L87.4493 7.73511C87.6087 7.95234 87.6958 8.22483 87.6958 8.50604C87.6958 8.78725 87.6087 9.05974 87.4493 9.27698L82.0317 16.5614C81.8478 16.8093 81.5835 16.9653 81.297 16.9949C81.0105 17.0245 80.7252 16.9253 80.5039 16.7192C80.2827 16.5132 80.1435 16.217 80.1171 15.896C80.0907 15.575 80.1792 15.2553 80.3631 15.0074L85.2064 8.49997L80.5256 1.99254C80.3931 1.81434 80.3089 1.59733 80.2831 1.36721C80.2572 1.13708 80.2907 0.903463 80.3796 0.694002C80.4685 0.484541 80.6091 0.308002 80.7848 0.18527C80.9604 0.0625394 81.1638 -0.00124381 81.3707 0.0014651Z" fill="#231F20"/>
</svg>
