<svg width="8" height="17" viewBox="0 0 8 17" fill="none" xmlns="http://www.w3.org/2000/svg">
<path d="M1.25841 -5.72353e-06C1.4203 -0.000621956 1.58025 0.0394122 1.72652 0.117155C1.87278 0.194896 2.00164 0.308372 2.10363 0.449241L7.33748 7.73431C7.49686 7.95156 7.58399 8.22407 7.58399 8.50531C7.58399 8.78654 7.49686 9.05905 7.33748 9.27631L1.91942 16.5614C1.73549 16.8093 1.47118 16.9653 1.18465 16.9949C0.898109 17.0245 0.612815 16.9253 0.391523 16.7192C0.170231 16.5131 0.0310687 16.217 0.00465084 15.8959C-0.0217675 15.5749 0.066722 15.2552 0.250653 15.0072L5.0944 8.49924L0.413196 1.99125C0.280688 1.81302 0.196516 1.596 0.17064 1.36585C0.144764 1.13571 0.178265 0.902071 0.267182 0.692592C0.356099 0.483113 0.496709 0.306558 0.672374 0.183817C0.848039 0.0610757 1.05141 -0.00271486 1.25841 -5.72353e-06Z" fill="#231F20"/>
</svg>
