<svg width="140" height="140" viewBox="0 0 140 140" fill="none" xmlns="http://www.w3.org/2000/svg">
<path d="M116.667 11.6667C118.214 11.6667 119.698 12.2812 120.791 13.3752C121.885 14.4692 122.5 15.9529 122.5 17.5V122.5C122.5 124.047 121.885 125.531 120.791 126.625C119.698 127.719 118.214 128.333 116.667 128.333H35C33.4529 128.333 31.9692 127.719 30.8752 126.625C29.7812 125.531 29.1667 124.047 29.1667 122.5V110.833H17.5V99.1666H29.1667V87.5H17.5V75.8333H29.1667V64.1667H17.5V52.5H29.1667V40.8333H17.5V29.1667H29.1667V17.5C29.1667 15.9529 29.7812 14.4692 30.8752 13.3752C31.9692 12.2812 33.4529 11.6667 35 11.6667H116.667ZM81.6667 46.6667H70V64.1667H52.5V75.8333H69.9942L70 93.3333H81.6667L81.6608 75.8333H99.1667V64.1667H81.6667V46.6667Z" fill="#545454"/>
</svg>
