<svg width="231" height="218" viewBox="0 0 231 218" fill="none" xmlns="http://www.w3.org/2000/svg">
<path d="M114.388 103.604C104.921 103.604 96.8159 100.222 90.0738 93.4594C83.3317 86.6964 79.9606 78.5663 79.9606 69.0693C79.9606 59.5723 83.3317 51.4422 90.0738 44.6792C96.8159 37.9162 104.921 34.5347 114.388 34.5347C123.856 34.5347 131.961 37.9162 138.703 44.6792C145.445 51.4422 148.816 59.5723 148.816 69.0693C148.816 78.5663 145.445 86.6964 138.703 93.4594C131.961 100.222 123.856 103.604 114.388 103.604ZM45.5327 172.673V148.499C45.5327 143.607 46.7893 139.108 49.3026 135.005C51.8158 130.901 55.1496 127.772 59.3039 125.62C68.1977 121.159 77.2351 117.812 86.4158 115.579C95.5966 113.346 104.921 112.232 114.388 112.238C123.856 112.238 133.18 113.354 142.361 115.587C151.542 117.821 160.579 121.165 169.473 125.62C173.633 127.778 176.97 130.909 179.483 135.013C181.996 139.117 183.25 143.612 183.244 148.499V172.673H45.5327Z" fill="#545454"/>
<path d="M228.5 109C228.5 167.684 178.047 215.5 115.5 215.5C52.9534 215.5 2.5 167.684 2.5 109C2.5 50.3161 52.9534 2.5 115.5 2.5C178.047 2.5 228.5 50.3161 228.5 109Z" stroke="#545454" stroke-width="5"/>
</svg>
